<svg width="1200" height="600" viewBox="0 0 1200 600" fill="none" xmlns="http://www.w3.org/2000/svg">
<rect width="1200" height="600" fill="#242424"/>
<rect x="315" y="185" width="230" height="230" rx="23" fill="black"/>
<path d="M362.861 369C362.006 369 361.45 368.1 361.832 367.336L428.971 233.057C429.395 232.21 430.605 232.21 431.029 233.057L498.168 367.336C498.55 368.1 497.994 369 497.139 369H469.523C469.088 369 468.689 368.754 468.495 368.364L431.029 293.432C430.605 292.585 429.395 292.585 428.971 293.432L391.505 368.364C391.311 368.754 390.912 369 390.477 369H362.861Z" fill="#FFDADA"/>
<path d="M601.445 213.674L592.973 237H589.51L599.266 211.406H601.498L601.445 213.674ZM608.547 237L600.057 213.674L600.004 211.406H602.236L612.027 237H608.547ZM608.107 227.525V230.303H593.729V227.525H608.107ZM618.197 221.76V237H614.928V217.98H618.021L618.197 221.76ZM617.529 226.77L616.018 226.717C616.029 225.416 616.199 224.215 616.527 223.113C616.855 222 617.342 221.033 617.986 220.213C618.631 219.393 619.434 218.76 620.395 218.314C621.355 217.857 622.469 217.629 623.734 217.629C624.625 217.629 625.445 217.758 626.195 218.016C626.945 218.262 627.596 218.654 628.146 219.193C628.697 219.732 629.125 220.424 629.43 221.268C629.734 222.111 629.887 223.131 629.887 224.326V237H626.635V224.484C626.635 223.488 626.465 222.691 626.125 222.094C625.797 221.496 625.328 221.062 624.719 220.793C624.109 220.512 623.395 220.371 622.574 220.371C621.613 220.371 620.811 220.541 620.166 220.881C619.521 221.221 619.006 221.689 618.619 222.287C618.232 222.885 617.951 223.57 617.775 224.344C617.611 225.105 617.529 225.914 617.529 226.77ZM629.852 224.977L627.672 225.645C627.684 224.602 627.854 223.6 628.182 222.639C628.521 221.678 629.008 220.822 629.641 220.072C630.285 219.322 631.076 218.73 632.014 218.297C632.951 217.852 634.023 217.629 635.23 217.629C636.25 217.629 637.152 217.764 637.938 218.033C638.734 218.303 639.402 218.719 639.941 219.281C640.492 219.832 640.908 220.541 641.189 221.408C641.471 222.275 641.611 223.307 641.611 224.502V237H638.342V224.467C638.342 223.4 638.172 222.574 637.832 221.988C637.504 221.391 637.035 220.975 636.426 220.74C635.828 220.494 635.113 220.371 634.281 220.371C633.566 220.371 632.934 220.494 632.383 220.74C631.832 220.986 631.369 221.326 630.994 221.76C630.619 222.182 630.332 222.668 630.133 223.219C629.945 223.77 629.852 224.355 629.852 224.977ZM650.066 217.98V237H646.797V217.98H650.066ZM646.551 212.936C646.551 212.408 646.709 211.963 647.025 211.6C647.354 211.236 647.834 211.055 648.467 211.055C649.088 211.055 649.562 211.236 649.891 211.6C650.23 211.963 650.4 212.408 650.4 212.936C650.4 213.439 650.23 213.873 649.891 214.236C649.562 214.588 649.088 214.764 648.467 214.764C647.834 214.764 647.354 214.588 647.025 214.236C646.709 213.873 646.551 213.439 646.551 212.936ZM658.539 220.969V237H655.287V217.98H658.451L658.539 220.969ZM664.48 217.875L664.463 220.898C664.193 220.84 663.936 220.805 663.689 220.793C663.455 220.77 663.186 220.758 662.881 220.758C662.131 220.758 661.469 220.875 660.895 221.109C660.32 221.344 659.834 221.672 659.436 222.094C659.037 222.516 658.721 223.02 658.486 223.605C658.264 224.18 658.117 224.812 658.047 225.504L657.133 226.031C657.133 224.883 657.244 223.805 657.467 222.797C657.701 221.789 658.059 220.898 658.539 220.125C659.02 219.34 659.629 218.73 660.367 218.297C661.117 217.852 662.008 217.629 663.039 217.629C663.273 217.629 663.543 217.658 663.848 217.717C664.152 217.764 664.363 217.816 664.48 217.875ZM684.432 228.387V231.059H665.939V229.143L677.4 211.406H680.055L677.207 216.539L669.631 228.387H684.432ZM680.863 211.406V237H677.611V211.406H680.863ZM690.988 220.969V237H687.736V217.98H690.9L690.988 220.969ZM696.93 217.875L696.912 220.898C696.643 220.84 696.385 220.805 696.139 220.793C695.904 220.77 695.635 220.758 695.33 220.758C694.58 220.758 693.918 220.875 693.344 221.109C692.77 221.344 692.283 221.672 691.885 222.094C691.486 222.516 691.17 223.02 690.936 223.605C690.713 224.18 690.566 224.812 690.496 225.504L689.582 226.031C689.582 224.883 689.693 223.805 689.916 222.797C690.15 221.789 690.508 220.898 690.988 220.125C691.469 219.34 692.078 218.73 692.816 218.297C693.566 217.852 694.457 217.629 695.488 217.629C695.723 217.629 695.992 217.658 696.297 217.717C696.602 217.764 696.812 217.816 696.93 217.875ZM710.447 233.748V223.957C710.447 223.207 710.295 222.557 709.99 222.006C709.697 221.443 709.252 221.01 708.654 220.705C708.057 220.4 707.318 220.248 706.439 220.248C705.619 220.248 704.898 220.389 704.277 220.67C703.668 220.951 703.188 221.32 702.836 221.777C702.496 222.234 702.326 222.727 702.326 223.254H699.074C699.074 222.574 699.25 221.9 699.602 221.232C699.953 220.564 700.457 219.961 701.113 219.422C701.781 218.871 702.578 218.438 703.504 218.121C704.441 217.793 705.484 217.629 706.633 217.629C708.016 217.629 709.234 217.863 710.289 218.332C711.355 218.801 712.188 219.51 712.785 220.459C713.395 221.396 713.699 222.574 713.699 223.992V232.852C713.699 233.484 713.752 234.158 713.857 234.873C713.975 235.588 714.145 236.203 714.367 236.719V237H710.975C710.811 236.625 710.682 236.127 710.588 235.506C710.494 234.873 710.447 234.287 710.447 233.748ZM711.01 225.469L711.045 227.754H707.758C706.832 227.754 706.006 227.83 705.279 227.982C704.553 228.123 703.943 228.34 703.451 228.633C702.959 228.926 702.584 229.295 702.326 229.74C702.068 230.174 701.939 230.684 701.939 231.27C701.939 231.867 702.074 232.412 702.344 232.904C702.613 233.396 703.018 233.789 703.557 234.082C704.107 234.363 704.781 234.504 705.578 234.504C706.574 234.504 707.453 234.293 708.215 233.871C708.977 233.449 709.58 232.934 710.025 232.324C710.482 231.715 710.729 231.123 710.764 230.549L712.152 232.113C712.07 232.605 711.848 233.15 711.484 233.748C711.121 234.346 710.635 234.92 710.025 235.471C709.428 236.01 708.713 236.461 707.881 236.824C707.061 237.176 706.135 237.352 705.104 237.352C703.814 237.352 702.684 237.1 701.711 236.596C700.75 236.092 700 235.418 699.461 234.574C698.934 233.719 698.67 232.764 698.67 231.709C698.67 230.689 698.869 229.793 699.268 229.02C699.666 228.234 700.24 227.584 700.99 227.068C701.74 226.541 702.643 226.143 703.697 225.873C704.752 225.604 705.93 225.469 707.23 225.469H711.01ZM718.797 210H722.066V233.309L721.785 237H718.797V210ZM734.916 227.332V227.701C734.916 229.084 734.752 230.367 734.424 231.551C734.096 232.723 733.615 233.742 732.982 234.609C732.35 235.477 731.576 236.15 730.662 236.631C729.748 237.111 728.699 237.352 727.516 237.352C726.309 237.352 725.248 237.146 724.334 236.736C723.432 236.314 722.67 235.711 722.049 234.926C721.428 234.141 720.93 233.191 720.555 232.078C720.191 230.965 719.939 229.711 719.799 228.316V226.699C719.939 225.293 720.191 224.033 720.555 222.92C720.93 221.807 721.428 220.857 722.049 220.072C722.67 219.275 723.432 218.672 724.334 218.262C725.236 217.84 726.285 217.629 727.48 217.629C728.676 217.629 729.736 217.863 730.662 218.332C731.588 218.789 732.361 219.445 732.982 220.301C733.615 221.156 734.096 222.182 734.424 223.377C734.752 224.561 734.916 225.879 734.916 227.332ZM731.646 227.701V227.332C731.646 226.383 731.559 225.492 731.383 224.66C731.207 223.816 730.926 223.078 730.539 222.445C730.152 221.801 729.643 221.297 729.01 220.934C728.377 220.559 727.598 220.371 726.672 220.371C725.852 220.371 725.137 220.512 724.527 220.793C723.93 221.074 723.42 221.455 722.998 221.936C722.576 222.404 722.23 222.943 721.961 223.553C721.703 224.15 721.51 224.771 721.381 225.416V229.652C721.568 230.473 721.873 231.264 722.295 232.025C722.729 232.775 723.303 233.391 724.018 233.871C724.744 234.352 725.641 234.592 726.707 234.592C727.586 234.592 728.336 234.416 728.957 234.064C729.59 233.701 730.1 233.203 730.486 232.57C730.885 231.938 731.178 231.205 731.365 230.373C731.553 229.541 731.646 228.65 731.646 227.701Z" fill="white"/>
<path d="M601.938 259.5V305H593.344V259.5H601.938ZM620.281 279.156V285.938H599.688V279.156H620.281ZM622.688 259.5V266.281H599.688V259.5H622.688ZM635.344 278.094V305H627.094V271.188H634.906L635.344 278.094ZM645.625 270.969L645.5 278.656C645.042 278.573 644.521 278.51 643.938 278.469C643.375 278.427 642.844 278.406 642.344 278.406C641.073 278.406 639.958 278.583 639 278.938C638.042 279.271 637.24 279.76 636.594 280.406C635.969 281.052 635.49 281.844 635.156 282.781C634.823 283.698 634.635 284.74 634.594 285.906L632.812 285.688C632.812 283.542 633.031 281.552 633.469 279.719C633.906 277.885 634.542 276.281 635.375 274.906C636.208 273.531 637.25 272.469 638.5 271.719C639.771 270.948 641.229 270.562 642.875 270.562C643.333 270.562 643.823 270.604 644.344 270.688C644.885 270.75 645.312 270.844 645.625 270.969ZM647.812 288.438V287.781C647.812 285.302 648.167 283.021 648.875 280.938C649.583 278.833 650.615 277.01 651.969 275.469C653.323 273.927 654.979 272.729 656.938 271.875C658.896 271 661.125 270.562 663.625 270.562C666.167 270.562 668.417 271 670.375 271.875C672.354 272.729 674.021 273.927 675.375 275.469C676.729 277.01 677.76 278.833 678.469 280.938C679.177 283.021 679.531 285.302 679.531 287.781V288.438C679.531 290.896 679.177 293.177 678.469 295.281C677.76 297.365 676.729 299.188 675.375 300.75C674.021 302.292 672.365 303.49 670.406 304.344C668.448 305.198 666.208 305.625 663.688 305.625C661.188 305.625 658.948 305.198 656.969 304.344C654.99 303.49 653.323 302.292 651.969 300.75C650.615 299.188 649.583 297.365 648.875 295.281C648.167 293.177 647.812 290.896 647.812 288.438ZM656.062 287.781V288.438C656.062 289.917 656.208 291.302 656.5 292.594C656.792 293.885 657.24 295.021 657.844 296C658.448 296.979 659.229 297.75 660.188 298.312C661.167 298.854 662.333 299.125 663.688 299.125C665.021 299.125 666.167 298.854 667.125 298.312C668.083 297.75 668.865 296.979 669.469 296C670.094 295.021 670.552 293.885 670.844 292.594C671.135 291.302 671.281 289.917 671.281 288.438V287.781C671.281 286.323 671.135 284.958 670.844 283.688C670.552 282.396 670.094 281.26 669.469 280.281C668.865 279.281 668.073 278.5 667.094 277.938C666.135 277.354 664.979 277.062 663.625 277.062C662.292 277.062 661.146 277.354 660.188 277.938C659.229 278.5 658.448 279.281 657.844 280.281C657.24 281.26 656.792 282.396 656.5 283.688C656.208 284.958 656.062 286.323 656.062 287.781ZM693.625 278.406V305H685.375V271.188H693.125L693.625 278.406ZM692.312 286.875H689.875C689.896 284.417 690.229 282.188 690.875 280.188C691.521 278.188 692.427 276.469 693.594 275.031C694.781 273.594 696.188 272.49 697.812 271.719C699.438 270.948 701.25 270.562 703.25 270.562C704.875 270.562 706.344 270.792 707.656 271.25C708.969 271.708 710.094 272.438 711.031 273.438C711.99 274.438 712.719 275.75 713.219 277.375C713.74 278.979 714 280.958 714 283.312V305H705.688V283.25C705.688 281.708 705.458 280.49 705 279.594C704.562 278.698 703.917 278.062 703.062 277.688C702.229 277.312 701.198 277.125 699.969 277.125C698.698 277.125 697.583 277.385 696.625 277.906C695.688 278.406 694.896 279.104 694.25 280C693.625 280.896 693.146 281.927 692.812 283.094C692.479 284.26 692.312 285.521 692.312 286.875ZM737.281 271.188V277.125H717.906V271.188H737.281ZM723.094 262.875H731.375V295.25C731.375 296.25 731.51 297.021 731.781 297.562C732.052 298.104 732.458 298.469 733 298.656C733.542 298.844 734.188 298.938 734.938 298.938C735.479 298.938 735.979 298.906 736.438 298.844C736.896 298.781 737.281 298.719 737.594 298.656L737.625 304.844C736.938 305.073 736.156 305.26 735.281 305.406C734.427 305.552 733.458 305.625 732.375 305.625C730.521 305.625 728.896 305.312 727.5 304.688C726.104 304.042 725.021 303.01 724.25 301.594C723.479 300.156 723.094 298.26 723.094 295.906V262.875ZM759.219 282.25V288.781H742.125V282.25H759.219ZM781.469 305.625C778.906 305.625 776.604 305.208 774.562 304.375C772.521 303.542 770.781 302.385 769.344 300.906C767.927 299.406 766.833 297.667 766.062 295.688C765.312 293.688 764.938 291.542 764.938 289.25V288C764.938 285.396 765.312 283.031 766.062 280.906C766.812 278.76 767.875 276.917 769.25 275.375C770.625 273.833 772.271 272.646 774.188 271.812C776.104 270.979 778.219 270.562 780.531 270.562C782.927 270.562 785.042 270.969 786.875 271.781C788.708 272.573 790.24 273.698 791.469 275.156C792.698 276.615 793.625 278.365 794.25 280.406C794.875 282.427 795.188 284.667 795.188 287.125V290.594H768.688V284.906H787.062V284.281C787.021 282.969 786.771 281.771 786.312 280.688C785.854 279.583 785.146 278.708 784.188 278.062C783.229 277.396 781.99 277.062 780.469 277.062C779.24 277.062 778.167 277.333 777.25 277.875C776.354 278.396 775.604 279.146 775 280.125C774.417 281.083 773.979 282.229 773.688 283.562C773.396 284.896 773.25 286.375 773.25 288V289.25C773.25 290.667 773.438 291.979 773.812 293.188C774.208 294.396 774.781 295.448 775.531 296.344C776.302 297.219 777.219 297.906 778.281 298.406C779.365 298.885 780.594 299.125 781.969 299.125C783.698 299.125 785.26 298.792 786.656 298.125C788.073 297.438 789.302 296.427 790.344 295.094L794.5 299.406C793.792 300.448 792.833 301.448 791.625 302.406C790.438 303.365 789 304.146 787.312 304.75C785.625 305.333 783.677 305.625 781.469 305.625ZM808.812 278.406V305H800.562V271.188H808.312L808.812 278.406ZM807.5 286.875H805.062C805.083 284.417 805.417 282.188 806.062 280.188C806.708 278.188 807.615 276.469 808.781 275.031C809.969 273.594 811.375 272.49 813 271.719C814.625 270.948 816.438 270.562 818.438 270.562C820.062 270.562 821.531 270.792 822.844 271.25C824.156 271.708 825.281 272.438 826.219 273.438C827.177 274.438 827.906 275.75 828.406 277.375C828.927 278.979 829.188 280.958 829.188 283.312V305H820.875V283.25C820.875 281.708 820.646 280.49 820.188 279.594C819.75 278.698 819.104 278.062 818.25 277.688C817.417 277.312 816.385 277.125 815.156 277.125C813.885 277.125 812.771 277.385 811.812 277.906C810.875 278.406 810.083 279.104 809.438 280C808.812 280.896 808.333 281.927 808 283.094C807.667 284.26 807.5 285.521 807.5 286.875ZM856.75 297.812V257H865.062V305H857.562L856.75 297.812ZM835.031 288.5V287.844C835.031 285.26 835.323 282.917 835.906 280.812C836.51 278.688 837.385 276.865 838.531 275.344C839.677 273.823 841.062 272.646 842.688 271.812C844.333 270.979 846.198 270.562 848.281 270.562C850.302 270.562 852.062 270.969 853.562 271.781C855.083 272.594 856.375 273.75 857.438 275.25C858.521 276.75 859.385 278.531 860.031 280.594C860.677 282.635 861.146 284.885 861.438 287.344V289.125C861.146 291.521 860.677 293.719 860.031 295.719C859.385 297.719 858.521 299.469 857.438 300.969C856.375 302.448 855.083 303.594 853.562 304.406C852.042 305.219 850.26 305.625 848.219 305.625C846.156 305.625 844.302 305.198 842.656 304.344C841.031 303.49 839.646 302.292 838.5 300.75C837.375 299.208 836.51 297.396 835.906 295.312C835.323 293.229 835.031 290.958 835.031 288.5ZM843.312 287.844V288.5C843.312 289.958 843.438 291.323 843.688 292.594C843.938 293.865 844.344 294.99 844.906 295.969C845.469 296.927 846.188 297.677 847.062 298.219C847.958 298.76 849.042 299.031 850.312 299.031C851.938 299.031 853.271 298.677 854.312 297.969C855.375 297.24 856.198 296.25 856.781 295C857.365 293.729 857.74 292.302 857.906 290.719V285.812C857.823 284.562 857.604 283.406 857.25 282.344C856.917 281.281 856.438 280.365 855.812 279.594C855.208 278.823 854.458 278.219 853.562 277.781C852.667 277.344 851.604 277.125 850.375 277.125C849.104 277.125 848.021 277.406 847.125 277.969C846.229 278.51 845.5 279.271 844.938 280.25C844.375 281.229 843.958 282.365 843.688 283.656C843.438 284.948 843.312 286.344 843.312 287.844ZM606.938 380H597.125L597.188 373.25H606.938C609.583 373.25 611.802 372.667 613.594 371.5C615.385 370.312 616.74 368.615 617.656 366.406C618.573 364.177 619.031 361.51 619.031 358.406V356.062C619.031 353.667 618.771 351.552 618.25 349.719C617.729 347.885 616.958 346.344 615.938 345.094C614.938 343.844 613.698 342.896 612.219 342.25C610.74 341.604 609.042 341.281 607.125 341.281H596.938V334.5H607.125C610.167 334.5 612.938 335.01 615.438 336.031C617.958 337.052 620.135 338.521 621.969 340.438C623.823 342.333 625.24 344.604 626.219 347.25C627.219 349.896 627.719 352.854 627.719 356.125V358.406C627.719 361.656 627.219 364.615 626.219 367.281C625.24 369.927 623.823 372.198 621.969 374.094C620.135 375.99 617.948 377.448 615.406 378.469C612.865 379.49 610.042 380 606.938 380ZM601.938 334.5V380H593.344V334.5H601.938ZM649.594 380.625C647.031 380.625 644.729 380.208 642.688 379.375C640.646 378.542 638.906 377.385 637.469 375.906C636.052 374.406 634.958 372.667 634.188 370.688C633.438 368.688 633.062 366.542 633.062 364.25V363C633.062 360.396 633.438 358.031 634.188 355.906C634.938 353.76 636 351.917 637.375 350.375C638.75 348.833 640.396 347.646 642.312 346.812C644.229 345.979 646.344 345.562 648.656 345.562C651.052 345.562 653.167 345.969 655 346.781C656.833 347.573 658.365 348.698 659.594 350.156C660.823 351.615 661.75 353.365 662.375 355.406C663 357.427 663.312 359.667 663.312 362.125V365.594H636.812V359.906H655.188V359.281C655.146 357.969 654.896 356.771 654.438 355.688C653.979 354.583 653.271 353.708 652.312 353.062C651.354 352.396 650.115 352.062 648.594 352.062C647.365 352.062 646.292 352.333 645.375 352.875C644.479 353.396 643.729 354.146 643.125 355.125C642.542 356.083 642.104 357.229 641.812 358.562C641.521 359.896 641.375 361.375 641.375 363V364.25C641.375 365.667 641.562 366.979 641.938 368.188C642.333 369.396 642.906 370.448 643.656 371.344C644.427 372.219 645.344 372.906 646.406 373.406C647.49 373.885 648.719 374.125 650.094 374.125C651.823 374.125 653.385 373.792 654.781 373.125C656.198 372.438 657.427 371.427 658.469 370.094L662.625 374.406C661.917 375.448 660.958 376.448 659.75 377.406C658.562 378.365 657.125 379.146 655.438 379.75C653.75 380.333 651.802 380.625 649.594 380.625ZM679.625 373.75L687.5 346.188H696.125L684.531 380H679.281L679.625 373.75ZM673.875 346.188L681.844 373.812L682.125 380H676.844L665.219 346.188H673.875ZM715.219 380.625C712.656 380.625 710.354 380.208 708.312 379.375C706.271 378.542 704.531 377.385 703.094 375.906C701.677 374.406 700.583 372.667 699.812 370.688C699.062 368.688 698.688 366.542 698.688 364.25V363C698.688 360.396 699.062 358.031 699.812 355.906C700.562 353.76 701.625 351.917 703 350.375C704.375 348.833 706.021 347.646 707.938 346.812C709.854 345.979 711.969 345.562 714.281 345.562C716.677 345.562 718.792 345.969 720.625 346.781C722.458 347.573 723.99 348.698 725.219 350.156C726.448 351.615 727.375 353.365 728 355.406C728.625 357.427 728.938 359.667 728.938 362.125V365.594H702.438V359.906H720.812V359.281C720.771 357.969 720.521 356.771 720.062 355.688C719.604 354.583 718.896 353.708 717.938 353.062C716.979 352.396 715.74 352.062 714.219 352.062C712.99 352.062 711.917 352.333 711 352.875C710.104 353.396 709.354 354.146 708.75 355.125C708.167 356.083 707.729 357.229 707.438 358.562C707.146 359.896 707 361.375 707 363V364.25C707 365.667 707.188 366.979 707.562 368.188C707.958 369.396 708.531 370.448 709.281 371.344C710.052 372.219 710.969 372.906 712.031 373.406C713.115 373.885 714.344 374.125 715.719 374.125C717.448 374.125 719.01 373.792 720.406 373.125C721.823 372.438 723.052 371.427 724.094 370.094L728.25 374.406C727.542 375.448 726.583 376.448 725.375 377.406C724.188 378.365 722.75 379.146 721.062 379.75C719.375 380.333 717.427 380.625 715.219 380.625ZM743.219 332V380H734.938V332H743.219ZM749.625 363.438V362.781C749.625 360.302 749.979 358.021 750.688 355.938C751.396 353.833 752.427 352.01 753.781 350.469C755.135 348.927 756.792 347.729 758.75 346.875C760.708 346 762.938 345.562 765.438 345.562C767.979 345.562 770.229 346 772.188 346.875C774.167 347.729 775.833 348.927 777.188 350.469C778.542 352.01 779.573 353.833 780.281 355.938C780.99 358.021 781.344 360.302 781.344 362.781V363.438C781.344 365.896 780.99 368.177 780.281 370.281C779.573 372.365 778.542 374.188 777.188 375.75C775.833 377.292 774.177 378.49 772.219 379.344C770.26 380.198 768.021 380.625 765.5 380.625C763 380.625 760.76 380.198 758.781 379.344C756.802 378.49 755.135 377.292 753.781 375.75C752.427 374.188 751.396 372.365 750.688 370.281C749.979 368.177 749.625 365.896 749.625 363.438ZM757.875 362.781V363.438C757.875 364.917 758.021 366.302 758.312 367.594C758.604 368.885 759.052 370.021 759.656 371C760.26 371.979 761.042 372.75 762 373.312C762.979 373.854 764.146 374.125 765.5 374.125C766.833 374.125 767.979 373.854 768.938 373.312C769.896 372.75 770.677 371.979 771.281 371C771.906 370.021 772.365 368.885 772.656 367.594C772.948 366.302 773.094 364.917 773.094 363.438V362.781C773.094 361.323 772.948 359.958 772.656 358.688C772.365 357.396 771.906 356.26 771.281 355.281C770.677 354.281 769.885 353.5 768.906 352.938C767.948 352.354 766.792 352.062 765.438 352.062C764.104 352.062 762.958 352.354 762 352.938C761.042 353.5 760.26 354.281 759.656 355.281C759.052 356.26 758.604 357.396 758.312 358.688C758.021 359.958 757.875 361.323 757.875 362.781ZM795.594 352.688V393H787.312V346.188H794.969L795.594 352.688ZM817.312 362.75V363.406C817.312 365.865 817.021 368.146 816.438 370.25C815.875 372.333 815.042 374.156 813.938 375.719C812.833 377.26 811.458 378.469 809.812 379.344C808.188 380.198 806.312 380.625 804.188 380.625C802.104 380.625 800.292 380.229 798.75 379.438C797.208 378.625 795.906 377.479 794.844 376C793.781 374.521 792.927 372.802 792.281 370.844C791.656 368.865 791.188 366.708 790.875 364.375V362.281C791.188 359.802 791.656 357.552 792.281 355.531C792.927 353.49 793.781 351.729 794.844 350.25C795.906 348.75 797.198 347.594 798.719 346.781C800.26 345.969 802.062 345.562 804.125 345.562C806.271 345.562 808.156 345.969 809.781 346.781C811.427 347.594 812.812 348.76 813.938 350.281C815.062 351.802 815.906 353.615 816.469 355.719C817.031 357.823 817.312 360.167 817.312 362.75ZM809.031 363.406V362.75C809.031 361.25 808.896 359.865 808.625 358.594C808.354 357.302 807.938 356.177 807.375 355.219C806.812 354.24 806.083 353.479 805.188 352.938C804.292 352.396 803.208 352.125 801.938 352.125C800.667 352.125 799.573 352.333 798.656 352.75C797.74 353.167 796.99 353.76 796.406 354.531C795.823 355.302 795.365 356.219 795.031 357.281C794.719 358.323 794.51 359.479 794.406 360.75V365.938C794.594 367.479 794.958 368.865 795.5 370.094C796.042 371.323 796.833 372.302 797.875 373.031C798.938 373.76 800.312 374.125 802 374.125C803.271 374.125 804.354 373.844 805.25 373.281C806.146 372.719 806.875 371.948 807.438 370.969C808 369.969 808.406 368.823 808.656 367.531C808.906 366.24 809.031 364.865 809.031 363.406ZM838.531 380.625C835.969 380.625 833.667 380.208 831.625 379.375C829.583 378.542 827.844 377.385 826.406 375.906C824.99 374.406 823.896 372.667 823.125 370.688C822.375 368.688 822 366.542 822 364.25V363C822 360.396 822.375 358.031 823.125 355.906C823.875 353.76 824.938 351.917 826.312 350.375C827.688 348.833 829.333 347.646 831.25 346.812C833.167 345.979 835.281 345.562 837.594 345.562C839.99 345.562 842.104 345.969 843.938 346.781C845.771 347.573 847.302 348.698 848.531 350.156C849.76 351.615 850.688 353.365 851.312 355.406C851.938 357.427 852.25 359.667 852.25 362.125V365.594H825.75V359.906H844.125V359.281C844.083 357.969 843.833 356.771 843.375 355.688C842.917 354.583 842.208 353.708 841.25 353.062C840.292 352.396 839.052 352.062 837.531 352.062C836.302 352.062 835.229 352.333 834.312 352.875C833.417 353.396 832.667 354.146 832.062 355.125C831.479 356.083 831.042 357.229 830.75 358.562C830.458 359.896 830.312 361.375 830.312 363V364.25C830.312 365.667 830.5 366.979 830.875 368.188C831.271 369.396 831.844 370.448 832.594 371.344C833.365 372.219 834.281 372.906 835.344 373.406C836.427 373.885 837.656 374.125 839.031 374.125C840.76 374.125 842.323 373.792 843.719 373.125C845.135 372.438 846.365 371.427 847.406 370.094L851.562 374.406C850.854 375.448 849.896 376.448 848.688 377.406C847.5 378.365 846.062 379.146 844.375 379.75C842.688 380.333 840.74 380.625 838.531 380.625ZM866.031 353.094V380H857.781V346.188H865.594L866.031 353.094ZM876.312 345.969L876.188 353.656C875.729 353.573 875.208 353.51 874.625 353.469C874.062 353.427 873.531 353.406 873.031 353.406C871.76 353.406 870.646 353.583 869.688 353.938C868.729 354.271 867.927 354.76 867.281 355.406C866.656 356.052 866.177 356.844 865.844 357.781C865.51 358.698 865.323 359.74 865.281 360.906L863.5 360.688C863.5 358.542 863.719 356.552 864.156 354.719C864.594 352.885 865.229 351.281 866.062 349.906C866.896 348.531 867.938 347.469 869.188 346.719C870.458 345.948 871.917 345.562 873.562 345.562C874.021 345.562 874.51 345.604 875.031 345.688C875.573 345.75 876 345.844 876.312 345.969Z" fill="#FFDADA"/>
</svg>
